Coordinates
version=1
nRows=10
nColumns=22
inDegrees=yes

Units are S.I. units (second, meters, Newtons, ...)
If the header above contains a line with 'inDegrees', this indicates whether rotational values are in degrees (yes) or radians (no).

endheader
time	pelvis_tilt	pelvis_list	pelvis_rotation	pelvis_tx	pelvis_ty	pelvis_tz	hip_flexion_r	hip_adduction_r	hip_rotation_r	knee_angle_r	ankle_angle_r	subtalar_angle_r	hip_flexion_l	hip_adduction_l	hip_rotation_l	knee_angle_l	ankle_angle_l	subtalar_angle_l	lumbar_extension	lumbar_bending	lumbar_rotation
      0.01000000	     -7.37893316	     -2.16677424	     -3.11149612	     -1.05733619	      0.88633280	     -0.59071014	      8.86326068	      0.36241647	      2.53613561	    -10.36692730	     13.02265658	     -1.69324439	      5.94949160	     -5.45384027	    -13.55927394	    -10.83328717	     14.67422748	      4.69342891	      3.90706671	      0.96798926	     11.61101064
      0.02000000	     -7.37612359	     -2.16454711	     -3.10520735	     -1.05741443	      0.88633865	     -0.59072518	      8.86487147	      0.35869266	      2.53527980	    -10.36720287	     13.02234945	     -1.69421994	      5.95278700	     -5.45104735	    -13.55749331	    -10.83047019	     14.67353292	      4.69434583	      3.90481047	      0.97390353	     11.61729081
      0.03000000	     -7.37413718	     -2.16100762	     -3.09518200	     -1.05750073	      0.88634408	     -0.59074235	      8.86511270	      0.35307707	      2.52488746	    -10.36154291	     13.01890086	     -1.69890197	      5.95982949	     -5.44636825	    -13.53658161	    -10.83257049	     14.66927989	      4.69863992	      3.90503325	      0.97638317	     11.64177528
      0.04000000	     -7.37532031	     -2.15782769	     -3.07999124	     -1.05759259	      0.88634646	     -0.59077755	      8.86410314	      0.34638675	      2.51633566	    -10.34754314	     13.01185082	     -1.70580656	      5.97264818	     -5.44057108	    -13.51496705	    -10.83564547	     14.66427662	      4.70343478	      3.90922668	      0.98249493	     11.64896406
      0.05000000	     -7.37293342	     -2.15548887	     -3.07352952	     -1.05769081	      0.88635098	     -0.59080264	      8.86588530	      0.34193830	      2.51628874	    -10.34428905	     13.01086246	     -1.70683986	      5.97806893	     -5.43636387	    -13.51378985	    -10.83435433	     14.66379404	      4.70391192	      3.90734670	      0.99323751	     11.65043829
      0.06000000	     -7.37768946	     -2.15261032	     -3.05310282	     -1.05779986	      0.88635019	     -0.59084822	      8.86214022	      0.33420645	      2.50591215	    -10.31510809	     12.99810974	     -1.71461687	      6.00325688	     -5.43201140	    -13.48295763	    -10.85073241	     14.65561948	      4.70644358	      3.91406160	      0.99915089	     11.65122027
      0.07000000	     -7.38559989	     -2.15317928	     -3.03132034	     -1.05790426	      0.88634342	     -0.59089977	      8.86698411	      0.33056037	      2.49523827	    -10.29867535	     12.97979998	     -1.72502448	      6.02603305	     -5.42967500	    -13.46025949	    -10.85458120	     14.65186657	      4.70664713	      3.92493623	      1.01344129	     11.62059653
      0.08000000	     -7.38361191	     -2.15114330	     -3.02822478	     -1.05803017	      0.88634725	     -0.59091417	      8.87145534	      0.32750739	      2.49342297	    -10.29402482	     12.97991691	     -1.72585756	      6.03309825	     -5.42666115	    -13.45872165	    -10.85272251	     14.65134825	      4.70662519	      3.91859903	      1.02228499	     11.62324952
      0.09000000	     -7.38664355	     -2.14889619	     -3.01084393	     -1.05815341	      0.88634911	     -0.59095613	      8.87358589	      0.32067851	      2.48207023	    -10.27815691	     12.97083343	     -1.73216191	      6.05610981	     -5.42311903	    -13.43393242	    -10.86827608	     14.63856095	      4.70568717	      3.91938764	      1.03055131	     11.61917119
      0.10000000	     -7.38994737	     -2.14664227	     -2.99856138	     -1.05827991	      0.88635012	     -0.59099023	      8.88189503	      0.31543799	      2.47771054	    -10.27211333	     12.96207917	     -1.73748392	      6.06985134	     -5.41786845	    -13.42667557	    -10.86387488	     14.63458093	      4.70409067	      3.91809705	      1.04015157	     11.59137227
